<?xml version="1.0" encoding="utf-8"?>
<!-- Generator: Adobe Illustrator 16.0.0, SVG Export Plug-In . SVG Version: 6.00 Build 0)  -->
<!DOCTYPE svg PUBLIC "-//W3C//DTD SVG 1.1//EN" "http://www.w3.org/Graphics/SVG/1.1/DTD/svg11.dtd">
<svg version="1.1" id="Layer_1" xmlns="http://www.w3.org/2000/svg" xmlns:xlink="http://www.w3.org/1999/xlink" x="0px" y="0px"
	 width="69.748px" height="76.47px" viewBox="0 0 69.748 76.47" enable-background="new 0 0 69.748 76.47" xml:space="preserve">
<path fill="#E8E8E8" d="M36.319,36.484V20.84l3.5,3.5l3-3l-8.5-8.5l-8.5,8.5l3,3l3.5-3.5v15.644
	c-7.614,0.983-13.51,7.476-13.51,15.356c0,8.561,6.95,15.5,15.51,15.5s15.51-6.939,15.51-15.5
	C49.829,43.959,43.934,37.467,36.319,36.484z M34.319,63.838c-6.627,0-11.999-5.371-11.999-11.999s5.372-12,11.999-12
	c6.628,0,11.999,5.372,11.999,12S40.947,63.838,34.319,63.838z"/>
</svg>
